<svg width="21" height="19" viewBox="0 0 21 19" fill="none" xmlns="http://www.w3.org/2000/svg">
<path fill-rule="evenodd" clip-rule="evenodd" d="M11.0957 18.4666L11.0837 18.4686L11.0127 18.5021L10.9927 18.506L10.9788 18.5021L10.9078 18.4676C10.8971 18.465 10.8891 18.467 10.8838 18.4734L10.8798 18.4829L10.8628 18.8934L10.8678 18.9125L10.8778 18.925L10.9817 18.996L10.9967 18.9998L11.0087 18.996L11.1127 18.925L11.1247 18.9097L11.1287 18.8934L11.1117 18.4839C11.1091 18.4737 11.1037 18.4679 11.0957 18.4666ZM11.3597 18.3583L11.3457 18.3602L11.1617 18.4494L11.1517 18.459L11.1487 18.4695L11.1667 18.8819L11.1717 18.8934L11.1797 18.901L11.3807 18.9892C11.3934 18.9924 11.4031 18.9899 11.4097 18.9816L11.4137 18.9682L11.3797 18.3794C11.3764 18.3672 11.3697 18.3602 11.3597 18.3583ZM10.6448 18.3602C10.6404 18.3576 10.6351 18.3568 10.6301 18.3579C10.625 18.359 10.6206 18.3618 10.6178 18.366L10.6118 18.3794L10.5778 18.9682C10.5784 18.9797 10.5841 18.9873 10.5948 18.9912L10.6098 18.9892L10.8108 18.9001L10.8208 18.8924L10.8238 18.8819L10.8418 18.4695L10.8388 18.458L10.8288 18.4484L10.6448 18.3602Z" fill="#1B1B1B"/>
<path fill-rule="evenodd" clip-rule="evenodd" d="M14.2657 0C14.8227 1.81504e-05 15.3687 0.148761 15.8426 0.429565C16.3165 0.71037 16.6994 1.11215 16.9486 1.58989L18.3346 4.24705C18.5786 4.15116 18.8186 4.04759 19.0546 3.93636C19.2919 3.82268 19.5667 3.80407 19.8183 3.88464C20.07 3.9652 20.278 4.13834 20.3965 4.36595C20.5151 4.59357 20.5345 4.85703 20.4505 5.09836C20.3665 5.33969 20.1859 5.53914 19.9485 5.65282C19.7082 5.7554 19.4665 5.85514 19.2236 5.952L20.1845 7.796C20.3931 8.19583 20.5017 8.63677 20.5015 9.08383V11.507C20.5015 11.9118 20.4125 12.3119 20.2401 12.6814C20.0678 13.0509 19.8161 13.3813 19.5016 13.6512V14.8632C19.5016 15.2447 19.3435 15.6106 19.0622 15.8803C18.7809 16.1501 18.3994 16.3016 18.0016 16.3016C17.6038 16.3016 17.2222 16.1501 16.941 15.8803C16.6597 15.6106 16.5016 15.2447 16.5016 14.8632V14.3838H4.50187V14.8632C4.50187 15.2447 4.34384 15.6106 4.06254 15.8803C3.78124 16.1501 3.39972 16.3016 3.0019 16.3016C2.60408 16.3016 2.22256 16.1501 1.94126 15.8803C1.65996 15.6106 1.50193 15.2447 1.50193 14.8632V13.6512C0.887945 13.1238 0.501953 12.3585 0.501953 11.507V9.08287C0.50214 8.63646 0.610667 8.19621 0.818946 7.79696L1.77193 5.96735C1.5306 5.87018 1.29227 5.76565 1.05694 5.65378C0.820778 5.53862 0.64126 5.33908 0.557085 5.09818C0.472909 4.85728 0.490818 4.59431 0.606951 4.36595C0.665608 4.25321 0.74686 4.15266 0.846062 4.07005C0.945265 3.98743 1.06047 3.92438 1.1851 3.88448C1.30973 3.84458 1.44133 3.82863 1.5724 3.83753C1.70346 3.84643 1.8314 3.88001 1.94892 3.93636C2.18558 4.04823 2.42558 4.15179 2.66891 4.24705L4.05488 1.59084C4.30392 1.11293 4.68683 0.710954 5.1607 0.429973C5.63457 0.148993 6.18068 0.000107192 6.73782 0H14.2657ZM6.00184 8.63026C5.60402 8.63026 5.2225 8.7818 4.9412 9.05155C4.6599 9.3213 4.50187 9.68716 4.50187 10.0686C4.50187 10.4501 4.6599 10.816 4.9412 11.0857C5.2225 11.3555 5.60402 11.507 6.00184 11.507C6.39965 11.507 6.78118 11.3555 7.06248 11.0857C7.34378 10.816 7.50181 10.4501 7.50181 10.0686C7.50181 9.68716 7.34378 9.3213 7.06248 9.05155C6.78118 8.7818 6.39965 8.63026 6.00184 8.63026ZM15.0017 8.63026C14.6038 8.63026 14.2223 8.7818 13.941 9.05155C13.6597 9.3213 13.5017 9.68716 13.5017 10.0686C13.5017 10.4501 13.6597 10.816 13.941 11.0857C14.2223 11.3555 14.6038 11.507 15.0017 11.507C15.3995 11.507 15.781 11.3555 16.0623 11.0857C16.3436 10.816 16.5016 10.4501 16.5016 10.0686C16.5016 9.68716 16.3436 9.3213 16.0623 9.05155C15.781 8.7818 15.3995 8.63026 15.0017 8.63026ZM14.2657 1.91784H6.73782C6.57323 1.91781 6.41118 1.95675 6.26605 2.03118C6.12092 2.10562 5.99719 2.21326 5.90584 2.34455L5.84384 2.44812L4.57387 4.88185C6.12184 5.32679 8.20779 5.75351 10.5017 5.75351C12.6437 5.75351 14.6027 5.38145 16.1116 4.97007L16.4286 4.88185L15.1596 2.44812C15.0861 2.30698 14.9773 2.18544 14.843 2.09427C14.7086 2.00311 14.5529 1.94514 14.3897 1.92551L14.2667 1.91784H14.2657Z" fill="#1B1B1B"/>
</svg>
