<svg width="17" height="20" viewBox="0 0 17 20" fill="none" xmlns="http://www.w3.org/2000/svg">
<path fill-rule="evenodd" clip-rule="evenodd" d="M8.40273 0.000639148C9.49724 -0.0131964 10.5829 0.197724 11.5927 0.620349C12.6024 1.04297 13.5146 1.66831 14.2729 2.45766C15.0313 3.24702 15.6195 4.18359 16.0014 5.20944C16.3832 6.23528 16.5504 7.32857 16.4927 8.42164C16.4173 9.83201 15.9698 11.1973 15.1957 12.3786C15.1599 12.4518 15.1152 12.5203 15.0627 12.5826L14.9547 12.7116C14.7761 12.955 14.5851 13.188 14.3817 13.4106L9.26973 19.6346C9.17592 19.7488 9.05799 19.8407 8.92442 19.9038C8.79085 19.9669 8.64495 19.9996 8.49723 19.9996C8.3495 19.9996 8.20361 19.9669 8.07003 19.9038C7.93646 19.8407 7.81854 19.7488 7.72473 19.6346L2.47873 13.2666L2.47673 13.2646C2.37201 13.1394 2.269 13.0127 2.16773 12.8846L2.03473 12.7216C1.98343 12.6598 1.93979 12.592 1.90473 12.5196C1.08535 11.3255 0.605687 9.93132 0.516971 8.48586C0.428256 7.04039 0.733817 5.59797 1.40102 4.31264C2.06823 3.02731 3.07202 1.94733 4.3052 1.18806C5.53839 0.428777 6.95464 0.0187073 8.40273 0.00163919V0.000639148ZM11.4967 8.00364C11.504 8.40215 11.4318 8.79811 11.2843 9.1684C11.1369 9.53869 10.9171 9.87588 10.6378 10.1603C10.3586 10.4447 10.0255 10.6706 9.65792 10.8248C9.29038 10.979 8.8958 11.0584 8.49723 11.0584C8.09865 11.0584 7.70407 10.979 7.33654 10.8248C6.969 10.6706 6.63588 10.4447 6.35663 10.1603C6.07738 9.87588 5.8576 9.53869 5.71013 9.1684C5.56266 8.79811 5.49045 8.40215 5.49773 8.00364C5.51208 7.21761 5.83441 6.46862 6.39536 5.91781C6.95631 5.36701 7.71106 5.05841 8.49723 5.05841C9.28339 5.05841 10.0381 5.36701 10.5991 5.91781C11.16 6.46862 11.4824 7.21761 11.4967 8.00364Z" fill="#1B1B1B"/>
</svg>
