<svg width="17" height="20" viewBox="0 0 17 20" fill="none" xmlns="http://www.w3.org/2000/svg">
<path d="M0.501953 3.8448C0.501953 2.8251 0.909786 1.84716 1.63573 1.12612C2.36168 0.405076 3.34628 0 4.37292 0H12.631C13.6576 0 14.6422 0.405076 15.3682 1.12612C16.0941 1.84716 16.502 2.8251 16.502 3.8448V13.0723C16.502 14.7435 15.4284 16.1656 13.9285 16.6957L15.3396 18.7975C15.3974 18.8815 15.4377 18.976 15.4584 19.0756C15.4791 19.1752 15.4797 19.2779 15.4602 19.3777C15.4407 19.4775 15.4014 19.5725 15.3447 19.6572C15.2879 19.7418 15.2149 19.8144 15.1297 19.8709C15.0445 19.9273 14.9489 19.9663 14.8484 19.9858C14.7479 20.0053 14.6445 20.0047 14.5442 19.9842C14.4439 19.9637 14.3487 19.9237 14.2641 19.8664C14.1795 19.8091 14.1072 19.7358 14.0514 19.6505L12.217 16.9171H4.78582L2.9515 19.6505C2.89565 19.7358 2.82333 19.8091 2.73873 19.8664C2.65414 19.9237 2.55894 19.9637 2.45865 19.9842C2.35837 20.0047 2.25499 20.0053 2.1545 19.9858C2.054 19.9663 1.95839 19.9273 1.87321 19.8709C1.78802 19.8144 1.71494 19.7418 1.6582 19.6572C1.60146 19.5725 1.5622 19.4775 1.54267 19.3777C1.52314 19.2779 1.52374 19.1752 1.54444 19.0756C1.56514 18.976 1.60552 18.8815 1.66324 18.7975L3.07434 16.6957C2.32142 16.4294 1.66996 15.9381 1.20937 15.2894C0.748791 14.6406 0.501675 13.8662 0.501953 13.0723V3.8448ZM14.9536 4.61376H9.27615V8.20224H14.9536V4.61376ZM2.05034 8.20224H7.72776V4.61376H2.05034V8.20224ZM5.14711 12.047C5.14711 11.8431 5.06555 11.6475 4.92036 11.5033C4.77517 11.3591 4.57825 11.2781 4.37292 11.2781C4.16759 11.2781 3.97067 11.3591 3.82548 11.5033C3.68029 11.6475 3.59873 11.8431 3.59873 12.047V13.0723C3.59873 13.2763 3.68029 13.4719 3.82548 13.6161C3.97067 13.7603 4.16759 13.8413 4.37292 13.8413C4.57825 13.8413 4.77517 13.7603 4.92036 13.6161C5.06555 13.4719 5.14711 13.2763 5.14711 13.0723V12.047ZM12.631 11.2781C12.4257 11.2781 12.2287 11.3591 12.0835 11.5033C11.9384 11.6475 11.8568 11.8431 11.8568 12.047V13.0723C11.8568 13.2763 11.9384 13.4719 12.0835 13.6161C12.2287 13.7603 12.4257 13.8413 12.631 13.8413C12.8363 13.8413 13.0332 13.7603 13.1784 13.6161C13.3236 13.4719 13.4052 13.2763 13.4052 13.0723V12.047C13.4052 11.8431 13.3236 11.6475 13.1784 11.5033C13.0332 11.3591 12.8363 11.2781 12.631 11.2781Z" fill="#1B1B1B"/>
</svg>
